<?xml version="1.0" standalone="no"?><!DOCTYPE svg PUBLIC "-//W3C//DTD SVG 1.1//EN" "http://www.w3.org/Graphics/SVG/1.1/DTD/svg11.dtd"><svg t="1570772624754" class="icon" viewBox="0 0 1024 1024" version="1.1" xmlns="http://www.w3.org/2000/svg" p-id="1214" xmlns:xlink="http://www.w3.org/1999/xlink" width="200" height="200"><defs><style type="text/css"></style></defs><path d="M512 11.5712C235.6224 11.5712 11.5712 235.6224 11.5712 512S235.6224 1012.4288 512 1012.4288 1012.4288 788.3776 1012.4288 512 788.3776 11.5712 512 11.5712z m336.5888 434.0736L731.7504 580.9152l15.0528 178.176c1.536 17.8176-6.2464 34.7136-20.6848 45.2608-8.8064 6.4512-19.1488 9.728-29.5936 9.728-6.656 0-13.312-1.3312-19.7632-3.9936L512 740.6592l-164.7616 69.4272c-16.4864 6.9632-34.9184 4.8128-49.3568-5.632a50.21696 50.21696 0 0 1-20.6848-45.2608l15.0528-178.176-116.9408-135.3728a50.24768 50.24768 0 0 1-9.8304-48.7424 50.2272 50.2272 0 0 1 36.6592-33.6896l174.08-40.6528 92.4672-152.9856c9.216-15.2576 25.4976-24.3712 43.3152-24.3712a50.176 50.176 0 0 1 43.3152 24.3712l92.4672 152.9856 174.08 40.6528c17.408 4.096 31.1296 16.6912 36.6592 33.6896 5.4272 16.9984 1.8432 35.2256-9.9328 48.7424z" p-id="1215"></path></svg>