<?xml version="1.0" standalone="no"?><!DOCTYPE svg PUBLIC "-//W3C//DTD SVG 1.1//EN" "http://www.w3.org/Graphics/SVG/1.1/DTD/svg11.dtd"><svg t="1571042696086" class="icon" viewBox="0 0 1024 1024" version="1.1" xmlns="http://www.w3.org/2000/svg" p-id="1159" xmlns:xlink="http://www.w3.org/1999/xlink" width="200" height="200"><defs><style type="text/css"></style></defs><path d="M741.86950126 927.38138891c-8.33126586 0-16.66253168-1.72371018-24.7065125-5.027488L511.17962286 835.59382211l-205.98336589 86.7600788c-20.6845221 8.61855088-43.66732443 6.03298561-61.76628125-7.03848321-18.09895683-13.21511134-27.86664783-34.18691847-25.85565263-56.59515074L236.3914925 635.93072684 90.16341266 466.7198447a62.69995761 62.69995761 0 0 1-12.35325625-60.9044262 62.88669287 62.88669287 0 0 1 45.82196216-42.08725676L341.25052814 312.73506906l115.63222423-191.33182939a62.94414988 62.94414988 0 0 1 54.153228-30.45221309c22.40823227 0 42.66182683 11.34775865 54.15322799 30.45221309l115.63222423 191.33182939 217.61840957 50.84945016c21.6900197 5.17113053 38.92712146 20.82816463 45.82196213 42.08725677a62.62813635 62.62813635 0 0 1-12.35325624 60.90442618L785.82411072 635.78708433l18.81716941 222.78954012c1.86735269 22.26458976-7.75669579 43.3800394-25.85565262 56.59515072-10.91683111 7.9003383-23.84465742 12.06597122-36.91612625 12.20961374z m-57.45700582-608.75697674h0.14364252-0.14364252z m0 0" fill="#f4ea2a" p-id="1160"></path></svg>