<?xml version="1.0" standalone="no"?><!DOCTYPE svg PUBLIC "-//W3C//DTD SVG 1.1//EN" "http://www.w3.org/Graphics/SVG/1.1/DTD/svg11.dtd"><svg t="1570701715040" class="icon" viewBox="0 0 1024 1024" version="1.1" xmlns="http://www.w3.org/2000/svg" p-id="1040" xmlns:xlink="http://www.w3.org/1999/xlink" width="200" height="200"><defs><style type="text/css"></style></defs><path d="M745.625 930.09722222c-8.34375 0-16.78125-1.6875-24.84375-5.0625l-206.90625-87.1875-206.90625 87.1875c-20.71875 8.71875-43.875 6-62.0625-7.125-18.1875-13.21875-27.9375-34.40625-25.96875-56.8125l18.9375-223.78125L90.96875 467.34722222c-14.71875-16.96875-19.3125-39.84375-12.375-61.21875 6.9375-21.375 24.09375-37.125 46.03125-42.28125L343.25 312.75347222l116.15625-192.1875c11.625-19.21875 31.96875-30.65625 54.375-30.65625 22.5 0 42.84375 11.4375 54.46875 30.65625l116.15625 192.1875 218.625 51.09375c21.84375 5.15625 39.09375 20.90625 46.03125 42.28125 6.9375 21.375 2.34375 44.25-12.375 61.21875L789.875 637.22222222l18.9375 223.78125c1.875 22.40625-7.78125 43.59375-25.96875 56.8125-11.0625 8.0625-24.09375 12.1875-37.21875 12.28125zM169.25 435.56597222L302.9375 590.15972222c11.15625 12.84375 16.6875 30 15.28125 46.96875l-17.25 203.625 188.25-79.3125c15.75-6.5625 33.65625-6.5625 49.3125 0l188.34375 79.3125-17.25-203.625c-1.40625-16.96875 4.125-34.125 15.28125-46.96875l133.59375-154.59375-198.9375-46.5c-16.59375-3.84375-31.125-14.4375-39.9375-29.0625L513.875 185.25347222 408.125 360.09722222c-8.8125 14.625-23.34375 25.125-39.9375 29.0625l-198.9375 46.40625z m518.71875-116.90625h0.1875-0.1875z" fill="#999999" p-id="1041"></path></svg>