<?xml version="1.0" standalone="no"?><!DOCTYPE svg PUBLIC "-//W3C//DTD SVG 1.1//EN" "http://www.w3.org/Graphics/SVG/1.1/DTD/svg11.dtd"><svg t="1570772644355" class="icon" viewBox="0 0 1024 1024" version="1.1" xmlns="http://www.w3.org/2000/svg" p-id="1569" xmlns:xlink="http://www.w3.org/1999/xlink" width="200" height="200"><defs><style type="text/css"></style></defs><path d="M618.269975 405.730025h318.90915c39.193875 0 70.84665 31.55355 70.84665 70.84665v460.701675c0 39.193875-31.55355 70.84665-70.84665 70.84665H476.576675c-39.193875 0-70.84665-31.55355-70.84665-70.84665V618.269975H86.72165C47.627 618.269975 15.875 586.81565 15.875 547.423325V86.72165C15.875 47.627 47.42855 15.875 86.72165 15.875h460.701675c39.193875 0 70.84665 31.55355 70.84665 70.84665v319.008375z m0 70.84665v70.84665c0 39.193875-31.55355 70.84665-70.84665 70.84665h-70.84665v283.58505c0 19.547325 15.876 35.423325 35.423325 35.423325h389.855025c19.547325 0 35.423325-15.876 35.423325-35.423325V512c0-19.547325-15.876-35.423325-35.423325-35.423325H618.269975zM86.72165 122.144975V512c0 19.547325 15.876 35.423325 35.423325 35.423325H512c19.547325 0 35.423325-15.876 35.423325-35.423325V122.144975c0-9.426375-3.671325-18.356625-10.3194-25.0047A35.52255 35.52255 0 0 0 512 86.72165H122.144975c-9.426375 0-18.45585 3.671325-25.103925 10.3194s-10.3194 15.67755-10.3194 25.103925z m70.945875 270.48735V214.52345h124.82505V139.90625h51.79545c7.044975 0.99225 10.617075 1.9845 10.617075 3.075975-0.19845 1.5876-0.694575 3.1752-1.488375 4.56435-3.075975 8.13645-4.56435 17.761275-4.56435 28.874475v38.1024H471.31775v173.64375h-56.3598v-22.82175h-76.2048v130.977h-54.7722v-130.977H209.36375v27.3861h-51.696225z m51.696225-135.442125v66.976875h74.6172v-66.976875H209.36375z m205.5942 66.976875v-66.976875h-76.2048v66.976875h76.2048z m225.736875 540.37935h-57.848175l102.0033-281.699775h71.541225l98.927325 281.699775h-60.92415l-21.333375-59.435775h-111.132l-21.23415 59.435775z m36.614025-106.56765h80.669925l-38.1024-120.2607h-1.488375l-41.07915 120.2607z m259.9695-458.61795h-70.84665c0-78.288525-63.504-141.792525-141.792525-141.792525V86.72165c117.383175 0 212.639175 95.256 212.639175 212.639175zM86.72165 724.639175h70.84665c0 78.288525 63.504 141.792525 141.792525 141.792525v70.84665c-117.383175 0-212.639175-95.256-212.639175-212.639175z m0 0" p-id="1570"></path></svg>