<?xml version="1.0" standalone="no"?><!DOCTYPE svg PUBLIC "-//W3C//DTD SVG 1.1//EN" "http://www.w3.org/Graphics/SVG/1.1/DTD/svg11.dtd"><svg t="1570701743783" class="icon" viewBox="0 0 1024 1024" version="1.1" xmlns="http://www.w3.org/2000/svg" p-id="1040" xmlns:xlink="http://www.w3.org/1999/xlink" width="200" height="200"><defs><style type="text/css"></style></defs><path d="M518.69767432 62c-91.33953487 0-165.68372109 72.48139541-168.82325596 163.31860459H136.72093027A42.99069727 42.99069727 0 0 0 93.73023213 268.26744219a42.99069727 42.99069727 0 0 0 42.99069814 42.94883672h47.469767V792.67441836c0 90.39767432 61.36744219 164.21860459 137.030233 164.21860459h386.01627891c75.66279082 0 137.03023213-73.38139541 137.03023301-164.21860459V311.69767432h42.99069726a42.99069727 42.99069727 0 0 0 42.99069815-42.969767 42.99069727 42.99069727 0 0 0-42.99069815-42.94883759h-200.17674404A168.36279083 168.36279083 0 0 0 518.69767432 62z m-94.24883672 155.63720918c3.11860459-43.74418623 40.98139541-77.81860459 87.76046513-77.81860459 46.77906973 0 84.66279082 34.05348808 87.3209294 77.81860459h-175.08139453z m-98.43488437 660.97674405c-27.23023213 0-57.20232568-34.40930273-57.2023257-83.53255782V314.9h505.80000001v480.62093027c0 49.14418623-29.9511624 83.53255781-57.18139541 83.53255781H326.01395322v-0.43953485z" fill="#999999" p-id="1041"></path><path d="M385.53953487 762.32558164c21.41162754 0 38.90930273-19.04651192 38.90930273-42.90697705v-244.8837211c0-23.86046513-17.49767432-42.90697705-38.90930273-42.90697617-21.39069727 0-38.90930273 19.04651192-38.90930274 42.90697617v244.8837211c0 23.86046513 17.01627891 42.90697705 38.930233 42.90697705z m136.17209266 0c21.41162754 0 38.93023213-19.04651192 38.93023302-42.90697705v-244.8837211c0-23.86046513-17.51860459-42.90697705-38.93023302-42.90697617-21.39069727 0-38.90930273 19.04651192-38.90930185 42.90697617v244.8837211c0 23.86046513 17.51860459 42.90697705 38.93023213 42.90697705z m116.72790734 0c21.39069727 0 38.90930273-19.04651192 38.90930273-42.90697705v-244.8837211c0-23.86046513-17.51860459-42.90697705-38.90930273-42.90697617s-38.90930273 19.04651192-38.90930274 42.90697617v244.8837211c0 23.86046513 17.01627891 42.90697705 38.90930274 42.90697705z" fill="#999999" p-id="1042"></path></svg>