<?xml version="1.0" standalone="no"?><!DOCTYPE svg PUBLIC "-//W3C//DTD SVG 1.1//EN" "http://www.w3.org/Graphics/SVG/1.1/DTD/svg11.dtd"><svg t="1570772640233" class="icon" viewBox="0 0 1024 1024" version="1.1" xmlns="http://www.w3.org/2000/svg" p-id="1451" xmlns:xlink="http://www.w3.org/1999/xlink" width="200" height="200"><defs><style type="text/css"></style></defs><path d="M618.17075 405.730025h319.206825c39.09465 0 70.747425 31.55355 70.747425 70.84665v460.60245a70.747425 70.747425 0 0 1-70.747425 70.84665H476.576675c-39.09465 0-70.84665-31.55355-70.84665-70.84665V618.17075l138.31965 0.19845c27.683775-0.19845 74.02185-18.05895 74.02185-70.747425v-141.89175zM15.875 86.72165C15.875 47.627 47.42855 15.875 86.72165 15.875h460.60245c39.09465 0 70.747425 31.55355 70.747425 70.84665v319.008375l-70.747425-0.496125v103.094775c0 30.462075-22.722525 39.09465-38.1024 38.995425H405.6308v70.747425H86.72165A70.588665 70.588665 0 0 1 15.875 547.423325V86.72165z m141.792525 305.910675h51.696225v-27.3861h74.6172v130.977h54.871425v-130.977h76.105575v22.920975h56.260575V214.622675H338.653925v-38.1024c0-11.212425 1.488375-20.83725 4.56435-28.874475 0.7938-1.38915 1.38915-3.075975 1.488375-4.663575 0-0.99225-3.5721-1.9845-10.617075-3.075975h-51.79545v74.6172H157.5683v178.108875h0.099225z m51.696225-135.442125h74.6172v66.976875h-74.517975l-0.099225-66.976875z m205.5942 66.976875h-76.105575v-66.976875h76.105575v66.976875z m225.736875 540.37935l21.4326-59.435775h111.132l21.333375 59.435775h60.92415l-98.927325-281.699775h-71.541225l-102.0033 281.799 57.649725-0.099225z m36.614025-106.56765l41.07915-120.2607h1.488375l38.1024 120.2607h-80.669925z m259.9695-458.61795h-70.84665c0-78.38775-63.404775-141.6933-141.792525-141.6933V86.72165c117.383175 0 212.639175 95.256 212.639175 212.639175zM86.72165 724.53995h70.84665c0 78.38775 63.404775 141.792525 141.6933 141.792525v70.747425c-117.28395 0.19845-212.53995-95.05755-212.53995-212.53995z m0 0" p-id="1452"></path></svg>