<?xml version="1.0" standalone="no"?><!DOCTYPE svg PUBLIC "-//W3C//DTD SVG 1.1//EN" "http://www.w3.org/Graphics/SVG/1.1/DTD/svg11.dtd"><svg t="1570772633631" class="icon" viewBox="0 0 1024 1024" version="1.1" xmlns="http://www.w3.org/2000/svg" p-id="1332" xmlns:xlink="http://www.w3.org/1999/xlink" width="200" height="200"><defs><style type="text/css"></style></defs><path d="M696.5248 814.08c-6.656 0-13.312-1.3312-19.7632-3.9936L512 740.6592l-164.7616 69.4272c-16.4864 6.9632-34.9184 4.8128-49.4592-5.632a50.21696 50.21696 0 0 1-20.6848-45.2608l15.0528-178.176-116.8384-135.3728a50.24768 50.24768 0 0 1-9.8304-48.7424 50.2272 50.2272 0 0 1 36.6592-33.6896l174.08-40.6528 92.4672-152.9856c9.216-15.2576 25.4976-24.3712 43.3152-24.3712a50.176 50.176 0 0 1 43.3152 24.3712l92.4672 152.9856 174.08 40.6528c17.408 4.096 31.1296 16.6912 36.6592 33.6896 5.5296 16.9984 1.8432 35.2256-9.8304 48.7424L731.7504 580.9152l15.0528 178.176c1.536 17.8176-6.2464 34.7136-20.6848 45.2608-8.8064 6.3488-19.1488 9.6256-29.5936 9.728zM237.6704 420.352L344.064 543.4368c8.9088 10.24 13.312 23.8592 12.1856 37.376l-13.7216 162.0992 149.9136-63.1808c12.4928-5.2224 26.8288-5.2224 39.2192 0l149.9136 63.1808-13.7216-162.0992c-1.1264-13.5168 3.2768-27.136 12.1856-37.376L786.432 420.352l-158.4128-37.0688a50.85184 50.85184 0 0 1-31.8464-23.1424L512 221.0816l-84.1728 139.1616a51.29216 51.29216 0 0 1-31.744 23.1424l-158.4128 36.9664z m412.8768-93.0816h0.1024-0.1024z m0 0" p-id="1333"></path><path d="M512 11.5712C235.6224 11.5712 11.5712 235.6224 11.5712 512S235.6224 1012.4288 512 1012.4288 1012.4288 788.3776 1012.4288 512 788.3776 11.5712 512 11.5712z m0 929.792C274.8416 941.3632 82.6368 749.1584 82.6368 512S274.8416 82.6368 512 82.6368 941.3632 274.8416 941.3632 512 749.1584 941.3632 512 941.3632z" p-id="1334"></path></svg>